<svg width="170" height="37" viewBox="0 0 170 37" fill="none" xmlns="http://www.w3.org/2000/svg">
<path d="M108.719 8.20081C107.915 7.96969 107.329 7.68648 106.961 7.3512C106.596 7.01265 106.414 6.59599 106.414 6.1012C106.414 5.5413 106.637 5.07906 107.083 4.71448C107.532 4.34664 108.115 4.16272 108.831 4.16272C109.319 4.16272 109.754 4.25712 110.135 4.44592C110.519 4.63472 110.815 4.89514 111.023 5.22717C111.235 5.5592 111.341 5.92216 111.341 6.31604H110.398C110.398 5.88635 110.262 5.54944 109.988 5.3053C109.715 5.0579 109.329 4.9342 108.831 4.9342C108.369 4.9342 108.007 5.03674 107.747 5.24182C107.49 5.44364 107.361 5.72522 107.361 6.08655C107.361 6.37626 107.483 6.62203 107.728 6.82385C107.975 7.02242 108.393 7.20471 108.982 7.37073C109.575 7.53674 110.037 7.72066 110.369 7.92249C110.704 8.12105 110.952 8.3538 111.111 8.62073C111.274 8.88765 111.355 9.20178 111.355 9.56311C111.355 10.1393 111.131 10.6015 110.682 10.9498C110.232 11.2949 109.632 11.4674 108.88 11.4674C108.392 11.4674 107.936 11.3746 107.513 11.1891C107.09 11.0003 106.762 10.7431 106.531 10.4176C106.303 10.0921 106.189 9.72262 106.189 9.3092H107.132C107.132 9.73889 107.29 10.0791 107.605 10.3297C107.924 10.5771 108.349 10.7008 108.88 10.7008C109.375 10.7008 109.754 10.5999 110.018 10.3981C110.281 10.1962 110.413 9.92118 110.413 9.57288C110.413 9.22457 110.291 8.95601 110.047 8.76721C109.803 8.57515 109.36 8.38635 108.719 8.20081ZM114.612 11.4674C113.896 11.4674 113.313 11.233 112.864 10.7643C112.415 10.2923 112.19 9.66239 112.19 8.87463V8.70862C112.19 8.18453 112.29 7.71741 112.488 7.30725C112.69 6.89384 112.97 6.57157 113.328 6.34045C113.689 6.10608 114.08 5.98889 114.5 5.98889C115.187 5.98889 115.721 6.21513 116.102 6.6676C116.482 7.12008 116.673 7.76786 116.673 8.61096V8.98694H113.094C113.107 9.50777 113.258 9.92932 113.548 10.2516C113.841 10.5706 114.212 10.7301 114.661 10.7301C114.98 10.7301 115.25 10.665 115.472 10.5348C115.693 10.4046 115.887 10.2321 116.053 10.0172L116.604 10.4469C116.162 11.1272 115.498 11.4674 114.612 11.4674ZM114.5 6.73108C114.135 6.73108 113.829 6.86454 113.582 7.13147C113.335 7.39514 113.182 7.76624 113.123 8.24475H115.77V8.17639C115.743 7.71741 115.62 7.36259 115.398 7.11194C115.177 6.85803 114.878 6.73108 114.5 6.73108ZM118.704 11.3698H117.801V3.86975H118.704V11.3698ZM121.136 11.3698H120.232V3.86975H121.136V11.3698ZM124.778 11.4674C124.062 11.4674 123.479 11.233 123.03 10.7643C122.581 10.2923 122.356 9.66239 122.356 8.87463V8.70862C122.356 8.18453 122.456 7.71741 122.654 7.30725C122.856 6.89384 123.136 6.57157 123.494 6.34045C123.855 6.10608 124.246 5.98889 124.666 5.98889C125.353 5.98889 125.887 6.21513 126.268 6.6676C126.648 7.12008 126.839 7.76786 126.839 8.61096V8.98694H123.26C123.273 9.50777 123.424 9.92932 123.714 10.2516C124.007 10.5706 124.378 10.7301 124.827 10.7301C125.146 10.7301 125.416 10.665 125.638 10.5348C125.859 10.4046 126.053 10.2321 126.219 10.0172L126.771 10.4469C126.328 11.1272 125.664 11.4674 124.778 11.4674ZM124.666 6.73108C124.301 6.73108 123.995 6.86454 123.748 7.13147C123.501 7.39514 123.348 7.76624 123.289 8.24475H125.936V8.17639C125.91 7.71741 125.786 7.36259 125.564 7.11194C125.343 6.85803 125.044 6.73108 124.666 6.73108ZM130.442 6.89709C130.306 6.87431 130.158 6.86292 129.998 6.86292C129.406 6.86292 129.004 7.11519 128.792 7.61975V11.3698H127.889V6.08655H128.768L128.782 6.6969C129.078 6.22489 129.498 5.98889 130.042 5.98889C130.218 5.98889 130.351 6.01168 130.442 6.05725V6.89709ZM112.093 19.0446C112.093 19.7412 111.976 20.3499 111.741 20.8707C111.507 21.3883 111.175 21.7838 110.745 22.0573C110.315 22.3307 109.814 22.4674 109.241 22.4674C108.681 22.4674 108.185 22.3307 107.752 22.0573C107.319 21.7806 106.982 21.3883 106.741 20.8805C106.504 20.3694 106.382 19.7786 106.375 19.108V18.5953C106.375 17.9117 106.494 17.3079 106.731 16.7838C106.969 16.2597 107.304 15.8593 107.737 15.5826C108.174 15.3027 108.672 15.1627 109.231 15.1627C109.801 15.1627 110.302 15.3011 110.735 15.5778C111.172 15.8512 111.507 16.25 111.741 16.774C111.976 17.2949 112.093 17.902 112.093 18.5953V19.0446ZM111.16 18.5856C111.16 17.7425 110.991 17.0963 110.652 16.6471C110.314 16.1946 109.84 15.9684 109.231 15.9684C108.639 15.9684 108.172 16.1946 107.83 16.6471C107.492 17.0963 107.317 17.7213 107.308 18.5221V19.0446C107.308 19.8616 107.479 20.5045 107.82 20.9733C108.165 21.4388 108.639 21.6715 109.241 21.6715C109.847 21.6715 110.315 21.4518 110.647 21.0123C110.979 20.5696 111.15 19.9365 111.16 19.1129V18.5856ZM114.212 17.0865L114.241 17.7506C114.645 17.2428 115.172 16.9889 115.823 16.9889C116.94 16.9889 117.503 17.6188 117.513 18.8785V22.3698H116.609V18.8737C116.606 18.4928 116.518 18.2112 116.346 18.0289C116.176 17.8466 115.911 17.7555 115.55 17.7555C115.257 17.7555 115 17.8336 114.778 17.9899C114.557 18.1461 114.384 18.3512 114.261 18.6051V22.3698H113.357V17.0865H114.212ZM119.856 22.3698H118.953V14.8698H119.856V22.3698ZM122.288 22.3698H121.385V17.0865H122.288V22.3698ZM121.312 15.6852C121.312 15.5387 121.355 15.415 121.443 15.3141C121.535 15.2132 121.668 15.1627 121.844 15.1627C122.02 15.1627 122.153 15.2132 122.244 15.3141C122.335 15.415 122.381 15.5387 122.381 15.6852C122.381 15.8317 122.335 15.9537 122.244 16.0514C122.153 16.149 122.02 16.1979 121.844 16.1979C121.668 16.1979 121.535 16.149 121.443 16.0514C121.355 15.9537 121.312 15.8317 121.312 15.6852ZM124.593 17.0865L124.622 17.7506C125.026 17.2428 125.553 16.9889 126.204 16.9889C127.321 16.9889 127.884 17.6188 127.894 18.8785V22.3698H126.99V18.8737C126.987 18.4928 126.899 18.2112 126.727 18.0289C126.557 17.8466 126.292 17.7555 125.931 17.7555C125.638 17.7555 125.381 17.8336 125.159 17.9899C124.938 18.1461 124.765 18.3512 124.642 18.6051V22.3698H123.738V17.0865H124.593ZM131.448 22.4674C130.732 22.4674 130.149 22.233 129.7 21.7643C129.251 21.2923 129.026 20.6624 129.026 19.8746V19.7086C129.026 19.1845 129.126 18.7174 129.324 18.3073C129.526 17.8938 129.806 17.5716 130.164 17.3405C130.525 17.1061 130.916 16.9889 131.336 16.9889C132.023 16.9889 132.557 17.2151 132.938 17.6676C133.318 18.1201 133.509 18.7679 133.509 19.611V19.9869H129.93C129.943 20.5078 130.094 20.9293 130.384 21.2516C130.677 21.5706 131.048 21.7301 131.497 21.7301C131.816 21.7301 132.086 21.665 132.308 21.5348C132.529 21.4046 132.723 21.2321 132.889 21.0172L133.44 21.4469C132.998 22.1272 132.334 22.4674 131.448 22.4674ZM131.336 17.7311C130.971 17.7311 130.665 17.8645 130.418 18.1315C130.171 18.3951 130.018 18.7662 129.959 19.2448H132.605V19.1764C132.579 18.7174 132.456 18.3626 132.234 18.1119C132.013 17.858 131.714 17.7311 131.336 17.7311ZM107.835 25.2604L110.159 31.0612L112.483 25.2604H113.699V32.3698H112.762V29.6012L112.85 26.6129L110.516 32.3698H109.798L107.469 26.6276L107.562 29.6012V32.3698H106.624V25.2604H107.835ZM118.475 32.3698C118.423 32.2656 118.38 32.08 118.348 31.8131C117.928 32.2493 117.426 32.4674 116.844 32.4674C116.323 32.4674 115.895 32.3209 115.56 32.028C115.228 31.7317 115.062 31.3574 115.062 30.9049C115.062 30.3548 115.27 29.9283 115.687 29.6256C116.106 29.3196 116.696 29.1666 117.454 29.1666H118.333V28.7516C118.333 28.4358 118.239 28.1852 118.05 27.9996C117.861 27.8108 117.583 27.7164 117.215 27.7164C116.893 27.7164 116.622 27.7978 116.404 27.9606C116.186 28.1233 116.077 28.3203 116.077 28.5514H115.169C115.169 28.2877 115.262 28.0338 115.447 27.7897C115.636 27.5423 115.89 27.347 116.209 27.2037C116.531 27.0605 116.884 26.9889 117.269 26.9889C117.877 26.9889 118.354 27.1419 118.699 27.4479C119.044 27.7506 119.223 28.1689 119.236 28.7028V31.1344C119.236 31.6194 119.298 32.0052 119.422 32.2916V32.3698H118.475ZM116.976 31.6813C117.259 31.6813 117.527 31.608 117.781 31.4615C118.035 31.3151 118.219 31.1246 118.333 30.8903V29.8063H117.625C116.518 29.8063 115.965 30.1302 115.965 30.778C115.965 31.0612 116.059 31.2825 116.248 31.442C116.437 31.6015 116.679 31.6813 116.976 31.6813ZM123.206 27.8971C123.069 27.8743 122.921 27.8629 122.762 27.8629C122.169 27.8629 121.767 28.1152 121.556 28.6198V32.3698H120.652V27.0865H121.531L121.546 27.6969C121.842 27.2249 122.262 26.9889 122.806 26.9889C122.981 26.9889 123.115 27.0117 123.206 27.0573V27.8971ZM125.516 29.9235L124.949 30.5143V32.3698H124.046V24.8698H124.949V29.4059L125.433 28.8248L127.078 27.0865H128.177L126.121 29.2936L128.416 32.3698H127.356L125.516 29.9235ZM131.204 32.4674C130.488 32.4674 129.905 32.233 129.456 31.7643C129.007 31.2923 128.782 30.6624 128.782 29.8746V29.7086C128.782 29.1845 128.882 28.7174 129.08 28.3073C129.282 27.8938 129.562 27.5716 129.92 27.3405C130.281 27.1061 130.672 26.9889 131.092 26.9889C131.779 26.9889 132.312 27.2151 132.693 27.6676C133.074 28.1201 133.265 28.7679 133.265 29.611V29.9869H129.686C129.699 30.5078 129.85 30.9293 130.14 31.2516C130.433 31.5706 130.804 31.7301 131.253 31.7301C131.572 31.7301 131.842 31.665 132.063 31.5348C132.285 31.4046 132.479 31.2321 132.645 31.0172L133.196 31.4469C132.754 32.1272 132.09 32.4674 131.204 32.4674ZM131.092 27.7311C130.727 27.7311 130.421 27.8645 130.174 28.1315C129.926 28.3951 129.773 28.7662 129.715 29.2448H132.361V29.1764C132.335 28.7174 132.212 28.3626 131.99 28.1119C131.769 27.858 131.469 27.7311 131.092 27.7311ZM135.54 25.8073V27.0865H136.526V27.7848H135.54V31.0612C135.54 31.2727 135.584 31.4323 135.672 31.5397C135.76 31.6438 135.91 31.6959 136.121 31.6959C136.225 31.6959 136.368 31.6764 136.551 31.6373V32.3698C136.313 32.4349 136.082 32.4674 135.857 32.4674C135.454 32.4674 135.149 32.3453 134.944 32.1012C134.739 31.8571 134.637 31.5104 134.637 31.0612V27.7848H133.675V27.0865H134.637V25.8073H135.54ZM142.049 29.7867C142.049 30.5908 141.865 31.2386 141.497 31.7301C141.129 32.2216 140.631 32.4674 140.003 32.4674C139.362 32.4674 138.857 32.264 138.489 31.8571V34.401H137.586V27.0865H138.411L138.455 27.6725C138.823 27.2168 139.334 26.9889 139.988 26.9889C140.623 26.9889 141.124 27.2281 141.492 27.7067C141.863 28.1852 142.049 28.8509 142.049 29.7037V29.7867ZM141.146 29.6842C141.146 29.0885 141.019 28.6181 140.765 28.2731C140.511 27.928 140.162 27.7555 139.72 27.7555C139.173 27.7555 138.763 27.998 138.489 28.483V31.0074C138.759 31.4892 139.173 31.7301 139.729 31.7301C140.162 31.7301 140.506 31.5592 140.76 31.2174C141.017 30.8724 141.146 30.3613 141.146 29.6842ZM144.183 32.3698H143.279V24.8698H144.183V32.3698ZM148.895 32.3698C148.842 32.2656 148.8 32.08 148.768 31.8131C148.348 32.2493 147.846 32.4674 147.264 32.4674C146.743 32.4674 146.315 32.3209 145.979 32.028C145.647 31.7317 145.481 31.3574 145.481 30.9049C145.481 30.3548 145.69 29.9283 146.106 29.6256C146.526 29.3196 147.116 29.1666 147.874 29.1666H148.753V28.7516C148.753 28.4358 148.659 28.1852 148.47 27.9996C148.281 27.8108 148.003 27.7164 147.635 27.7164C147.312 27.7164 147.042 27.7978 146.824 27.9606C146.606 28.1233 146.497 28.3203 146.497 28.5514H145.589C145.589 28.2877 145.682 28.0338 145.867 27.7897C146.056 27.5423 146.31 27.347 146.629 27.2037C146.951 27.0605 147.304 26.9889 147.688 26.9889C148.297 26.9889 148.774 27.1419 149.119 27.4479C149.464 27.7506 149.643 28.1689 149.656 28.7028V31.1344C149.656 31.6194 149.718 32.0052 149.842 32.2916V32.3698H148.895ZM147.396 31.6813C147.679 31.6813 147.947 31.608 148.201 31.4615C148.455 31.3151 148.639 31.1246 148.753 30.8903V29.8063H148.045C146.938 29.8063 146.385 30.1302 146.385 30.778C146.385 31.0612 146.479 31.2825 146.668 31.442C146.857 31.6015 147.099 31.6813 147.396 31.6813ZM153.191 31.7301C153.514 31.7301 153.795 31.6324 154.036 31.4371C154.277 31.2418 154.41 30.9977 154.437 30.7047H155.291C155.275 31.0074 155.171 31.2955 154.979 31.569C154.786 31.8424 154.529 32.0605 154.207 32.2233C153.888 32.386 153.549 32.4674 153.191 32.4674C152.472 32.4674 151.899 32.2281 151.473 31.7496C151.049 31.2679 150.838 30.6103 150.838 29.777V29.6256C150.838 29.1113 150.932 28.6539 151.121 28.2535C151.31 27.8531 151.58 27.5423 151.932 27.3209C152.286 27.0996 152.705 26.9889 153.187 26.9889C153.779 26.9889 154.271 27.1663 154.661 27.5211C155.055 27.8759 155.265 28.3365 155.291 28.903H154.437C154.41 28.5612 154.28 28.2812 154.046 28.0631C153.815 27.8418 153.528 27.7311 153.187 27.7311C152.728 27.7311 152.371 27.8971 152.117 28.2291C151.867 28.5579 151.741 29.0348 151.741 29.6598V29.8307C151.741 30.4394 151.867 30.9082 152.117 31.2369C152.368 31.5657 152.726 31.7301 153.191 31.7301ZM158.499 32.4674C157.783 32.4674 157.2 32.233 156.751 31.7643C156.302 31.2923 156.077 30.6624 156.077 29.8746V29.7086C156.077 29.1845 156.176 28.7174 156.375 28.3073C156.577 27.8938 156.857 27.5716 157.215 27.3405C157.576 27.1061 157.967 26.9889 158.387 26.9889C159.074 26.9889 159.607 27.2151 159.988 27.6676C160.369 28.1201 160.56 28.7679 160.56 29.611V29.9869H156.98C156.993 30.5078 157.145 30.9293 157.435 31.2516C157.728 31.5706 158.099 31.7301 158.548 31.7301C158.867 31.7301 159.137 31.665 159.358 31.5348C159.58 31.4046 159.773 31.2321 159.939 31.0172L160.491 31.4469C160.049 32.1272 159.384 32.4674 158.499 32.4674ZM158.387 27.7311C158.022 27.7311 157.716 27.8645 157.469 28.1315C157.221 28.3951 157.068 28.7662 157.01 29.2448H159.656V29.1764C159.63 28.7174 159.507 28.3626 159.285 28.1119C159.064 27.858 158.764 27.7311 158.387 27.7311Z" fill="#242424"/>
<path d="M12.9163 33.0098C10.5963 33.0098 8.32962 32.7564 6.11629 32.2498C3.92962 31.7164 2.12962 31.0098 0.716289 30.1298L3.75629 23.2498C5.08962 24.0231 6.58296 24.6498 8.23629 25.1298C9.88962 25.5831 11.4763 25.8098 12.9963 25.8098C14.303 25.8098 15.2363 25.6898 15.7963 25.4498C16.3563 25.1831 16.6363 24.7964 16.6363 24.2898C16.6363 23.7031 16.263 23.2631 15.5163 22.9698C14.7963 22.6764 13.5963 22.3564 11.9163 22.0098C9.75629 21.5564 7.95629 21.0764 6.51629 20.5698C5.07629 20.0364 3.82296 19.1831 2.75629 18.0097C1.68962 16.8098 1.15629 15.1964 1.15629 13.1698C1.15629 11.4098 1.64962 9.80975 2.63629 8.36975C3.62296 6.92975 5.08962 5.79642 7.03629 4.96975C9.00962 4.14308 11.3963 3.72975 14.1963 3.72975C16.1163 3.72975 17.9963 3.94308 19.8363 4.36975C21.703 4.76975 23.343 5.36975 24.7563 6.16975L21.9163 13.0097C19.1696 11.6231 16.5696 10.9298 14.1163 10.9298C11.6896 10.9298 10.4763 11.5164 10.4763 12.6898C10.4763 13.2498 10.8363 13.6764 11.5563 13.9698C12.2763 14.2364 13.463 14.5298 15.1163 14.8498C17.2496 15.2498 19.0496 15.7164 20.5163 16.2497C21.983 16.7564 23.2496 17.5964 24.3163 18.7698C25.4096 19.9431 25.9563 21.5431 25.9563 23.5698C25.9563 25.3298 25.463 26.9298 24.4763 28.3698C23.4896 29.7831 22.0096 30.9164 20.0363 31.7698C18.0896 32.5964 15.7163 33.0098 12.9163 33.0098Z" fill="#E3390E"/>
<path d="M42.3254 33.0098C39.472 33.0098 36.9654 32.4898 34.8054 31.4498C32.672 30.3831 31.0187 28.9031 29.8454 27.0098C28.6987 25.1164 28.1254 22.9431 28.1254 20.4898C28.1254 17.2364 28.872 14.3431 30.3654 11.8098C31.8854 9.24975 33.9787 7.26308 36.6454 5.84975C39.3387 4.43642 42.3787 3.72975 45.7654 3.72975C48.6187 3.72975 51.112 4.26308 53.2454 5.32975C55.4054 6.36975 57.0587 7.83642 58.2054 9.72975C59.3787 11.6231 59.9654 13.7964 59.9654 16.2497C59.9654 19.5031 59.2054 22.4098 57.6854 24.9698C56.192 27.5031 54.0987 29.4764 51.4054 30.8898C48.7387 32.3031 45.712 33.0098 42.3254 33.0098ZM43.1254 25.3698C44.6187 25.3698 45.912 24.9831 47.0054 24.2098C48.1254 23.4364 48.9787 22.3964 49.5654 21.0898C50.152 19.7831 50.4454 18.3564 50.4454 16.8097C50.4454 15.1564 49.952 13.8364 48.9654 12.8497C48.0054 11.8631 46.672 11.3697 44.9654 11.3697C43.472 11.3697 42.1654 11.7564 41.0454 12.5298C39.952 13.3031 39.112 14.3431 38.5254 15.6498C37.9387 16.9564 37.6454 18.3831 37.6454 19.9298C37.6454 21.5831 38.1254 22.9031 39.0854 23.8898C40.072 24.8764 41.4187 25.3698 43.1254 25.3698Z" fill="#42B1BA"/>
<path d="M87.6716 32.3698L87.5916 19.6098L81.5116 29.8498H77.3516L71.2716 20.0497V32.3698H62.6716V4.36975H70.4316L79.5516 19.2898L88.4316 4.36975H96.1916L96.2716 32.3698H87.6716Z" fill="#3E4B66"/>
</svg>
