<svg width="20" height="20" viewBox="0 0 20 20" fill="none" xmlns="http://www.w3.org/2000/svg">
<path d="M9.75252 0.0909424C11.0251 0.0909424 12.2455 0.594879 13.1453 1.49189C14.0451 2.3889 14.5507 3.60551 14.5507 4.87408C14.5507 6.14265 14.0451 7.35926 13.1453 8.25627C12.2455 9.15329 11.0251 9.65722 9.75252 9.65722C8.47997 9.65722 7.25955 9.15329 6.35972 8.25627C5.4599 7.35926 4.95438 6.14265 4.95438 4.87408C4.95438 3.60551 5.4599 2.3889 6.35972 1.49189C7.25955 0.594879 8.47997 0.0909424 9.75252 0.0909424ZM9.75252 12.0488C15.0545 12.0488 19.3488 14.1892 19.3488 16.8319V19.2235H0.15625V16.8319C0.15625 14.1892 4.45058 12.0488 9.75252 12.0488Z" fill="#3E4B66"/>
</svg>
