<svg width="73" height="23" fill="none" xmlns="http://www.w3.org/2000/svg"><path d="M9.6 22.48c-1.74 0-3.44-.19-5.1-.57-1.64-.4-2.99-.93-4.05-1.59l2.28-5.16c1 .58 2.12 1.05 3.36 1.41 1.24.34 2.43.51 3.57.51.98 0 1.68-.09 2.1-.27.42-.2.63-.49.63-.87 0-.44-.28-.77-.84-.99-.54-.22-1.44-.46-2.7-.72-1.62-.34-2.97-.7-4.05-1.08a7.102 7.102 0 01-2.82-1.92c-.8-.9-1.2-2.11-1.2-3.63 0-1.32.37-2.52 1.11-3.6.74-1.08 1.84-1.93 3.3-2.55C6.67.83 8.46.52 10.56.52c1.44 0 2.85.16 4.23.48 1.4.3 2.63.75 3.69 1.35l-2.13 5.13c-2.06-1.04-4.01-1.56-5.85-1.56-1.82 0-2.73.44-2.73 1.32 0 .42.27.74.81.96.54.2 1.43.42 2.67.66 1.6.3 2.95.65 4.05 1.05 1.1.38 2.05 1.01 2.85 1.89.82.88 1.23 2.08 1.23 3.6 0 1.32-.37 2.52-1.11 3.6-.74 1.06-1.85 1.91-3.33 2.55-1.46.62-3.24.93-5.34.93z" fill="#E3390E"/><path d="M31.656 22.48c-2.14 0-4.02-.39-5.64-1.17-1.6-.8-2.84-1.91-3.72-3.33-.86-1.42-1.29-3.05-1.29-4.89 0-2.44.56-4.61 1.68-6.51 1.14-1.92 2.71-3.41 4.71-4.47 2.02-1.06 4.3-1.59 6.84-1.59 2.14 0 4.01.4 5.61 1.2 1.62.78 2.86 1.88 3.72 3.3.88 1.42 1.32 3.05 1.32 4.89 0 2.44-.57 4.62-1.71 6.54-1.12 1.9-2.69 3.38-4.71 4.44-2 1.06-4.27 1.59-6.81 1.59zm.6-5.73c1.12 0 2.09-.29 2.91-.87.84-.58 1.48-1.36 1.92-2.34.44-.98.66-2.05.66-3.21 0-1.24-.37-2.23-1.11-2.97-.72-.74-1.72-1.11-3-1.11-1.12 0-2.1.29-2.94.87-.82.58-1.45 1.36-1.89 2.34-.44.98-.66 2.05-.66 3.21 0 1.24.36 2.23 1.08 2.97.74.74 1.75 1.11 3.03 1.11z" fill="#42B1BA"/><path d="M65.666 22l-.06-9.57-4.56 7.68h-3.12l-4.56-7.35V22h-6.45V1h5.82l6.84 11.19L66.236 1h5.82l.06 21h-6.45z" fill="#3E4B66"/></svg>