<svg width="170" height="37" fill="none" xmlns="http://www.w3.org/2000/svg"><path d="M108.719 8.2c-.804-.23-1.39-.514-1.758-.849a1.638 1.638 0 01-.547-1.25c0-.56.223-1.022.669-1.387.449-.367 1.032-.551 1.748-.551a2.9 2.9 0 011.304.283c.384.189.68.45.888.781.212.332.318.695.318 1.089h-.943c0-.43-.136-.767-.41-1.01-.273-.248-.659-.372-1.157-.372-.462 0-.824.103-1.084.308-.257.202-.386.483-.386.845 0 .29.122.535.367.737.247.198.665.38 1.254.547.593.166 1.055.35 1.387.551.335.2.583.432.742.699.163.267.244.58.244.942 0 .576-.224 1.038-.673 1.387-.45.345-1.05.517-1.802.517-.488 0-.944-.092-1.367-.278-.423-.189-.751-.446-.982-.771a1.885 1.885 0 01-.342-1.109h.943c0 .43.158.77.473 1.02.319.248.744.372 1.275.372.495 0 .874-.101 1.138-.303a.985.985 0 00.395-.825c0-.348-.122-.617-.366-.806-.244-.192-.687-.38-1.328-.566zm5.893 3.267c-.716 0-1.299-.234-1.748-.703-.449-.472-.674-1.102-.674-1.89V8.71c0-.524.1-.992.298-1.402.202-.413.482-.735.84-.967a2.112 2.112 0 011.172-.351c.687 0 1.221.226 1.602.679.38.452.571 1.1.571 1.943v.376h-3.579c.013.52.164.942.454 1.265.293.319.664.478 1.113.478.319 0 .589-.065.811-.195a2.04 2.04 0 00.581-.518l.551.43c-.442.68-1.106 1.02-1.992 1.02zm-.112-4.736a1.2 1.2 0 00-.918.4c-.247.264-.4.635-.459 1.114h2.647v-.069c-.027-.459-.15-.813-.372-1.064-.221-.254-.52-.38-.898-.38zm4.204 4.639h-.903v-7.5h.903v7.5zm2.432 0h-.904v-7.5h.904v7.5zm3.642.097c-.716 0-1.299-.234-1.748-.703-.449-.472-.674-1.102-.674-1.89V8.71c0-.524.1-.992.298-1.402.202-.413.482-.735.84-.967a2.112 2.112 0 011.172-.351c.687 0 1.221.226 1.602.679.38.452.571 1.1.571 1.943v.376h-3.579c.013.52.164.942.454 1.265.293.319.664.478 1.113.478.319 0 .589-.065.811-.195a2.04 2.04 0 00.581-.518l.552.43c-.443.68-1.107 1.02-1.993 1.02zm-.112-4.736a1.2 1.2 0 00-.918.4c-.247.264-.4.635-.459 1.114h2.647v-.069c-.026-.459-.15-.813-.372-1.064-.221-.254-.52-.38-.898-.38zm5.776.166a2.693 2.693 0 00-.444-.034c-.592 0-.994.252-1.206.757v3.75h-.903V6.087h.879l.014.61c.296-.472.716-.708 1.26-.708a.92.92 0 01.4.068v.84zm-18.349 12.148c0 .696-.117 1.305-.352 1.826-.234.517-.566.913-.996 1.186-.43.274-.931.41-1.504.41-.56 0-1.056-.136-1.489-.41a2.762 2.762 0 01-1.011-1.176c-.237-.512-.359-1.102-.366-1.773v-.513c0-.683.119-1.287.356-1.811.238-.524.573-.925 1.006-1.201a2.71 2.71 0 011.494-.42c.57 0 1.071.138 1.504.415.437.273.772.672 1.006 1.196.235.52.352 1.128.352 1.821v.45zm-.933-.46c0-.843-.169-1.489-.508-1.938-.338-.452-.812-.679-1.421-.679-.592 0-1.059.227-1.401.68-.338.448-.513 1.073-.522 1.874v.523c0 .817.171 1.46.512 1.928.345.466.819.699 1.421.699.606 0 1.074-.22 1.406-.66.332-.442.503-1.076.513-1.9v-.526zm3.052-1.498l.029.664a1.926 1.926 0 011.582-.762c1.117 0 1.68.63 1.69 1.89v3.49h-.904v-3.495c-.003-.381-.091-.663-.263-.845-.17-.182-.435-.273-.796-.273-.293 0-.55.078-.772.234a1.587 1.587 0 00-.517.615v3.765h-.904v-5.284h.855zm5.644 5.283h-.903v-7.5h.903v7.5zm2.432 0h-.903v-5.284h.903v5.284zm-.976-6.685a.54.54 0 01.131-.37c.092-.102.225-.152.401-.152.176 0 .309.05.4.151a.535.535 0 01.137.371.517.517 0 01-.137.366c-.091.098-.224.147-.4.147-.176 0-.309-.049-.401-.147a.526.526 0 01-.131-.366zm3.281 1.402l.029.664a1.926 1.926 0 011.582-.762c1.117 0 1.68.63 1.69 1.89v3.49h-.904v-3.495c-.003-.381-.091-.663-.263-.845-.17-.182-.435-.273-.796-.273-.293 0-.55.078-.772.234a1.587 1.587 0 00-.517.615v3.765h-.904v-5.284h.855zm6.855 5.38c-.716 0-1.299-.234-1.748-.703-.449-.472-.674-1.102-.674-1.89v-.165c0-.524.1-.992.298-1.402.202-.413.482-.735.84-.966a2.112 2.112 0 011.172-.352c.687 0 1.221.226 1.602.679.38.452.571 1.1.571 1.943v.376h-3.579c.013.52.164.942.454 1.265.293.319.664.478 1.113.478.319 0 .589-.065.811-.195a2.04 2.04 0 00.581-.518l.551.43c-.442.68-1.106 1.02-1.992 1.02zm-.112-4.736a1.2 1.2 0 00-.918.4c-.247.264-.4.635-.459 1.114h2.646v-.069c-.026-.459-.149-.813-.371-1.064-.221-.254-.52-.38-.898-.38zm-23.501 7.53l2.324 5.8 2.324-5.8h1.216v7.109h-.937V29.6l.088-2.988-2.334 5.757h-.718l-2.329-5.742.093 2.973v2.769h-.938v-7.11h1.211zm10.64 7.109c-.052-.104-.095-.29-.127-.557-.42.436-.922.654-1.504.654-.521 0-.949-.146-1.284-.439a1.44 1.44 0 01-.498-1.123c0-.55.208-.977.625-1.28.419-.305 1.009-.458 1.767-.458h.879v-.415c0-.316-.094-.567-.283-.752-.189-.19-.467-.284-.835-.284-.322 0-.593.082-.811.245-.218.162-.327.36-.327.59h-.908c0-.263.093-.517.278-.761.189-.248.443-.443.762-.586a2.578 2.578 0 011.06-.215c.608 0 1.085.153 1.43.459.345.303.524.72.537 1.255v2.431c0 .485.062.871.186 1.158v.078h-.947zm-1.499-.689c.283 0 .551-.073.805-.22a1.33 1.33 0 00.552-.57v-1.085h-.708c-1.107 0-1.66.324-1.66.972 0 .283.094.505.283.664.189.16.431.24.728.24zm6.23-3.784a2.708 2.708 0 00-.444-.034c-.593 0-.995.252-1.206.757v3.75h-.904v-5.283h.879l.015.61c.296-.472.716-.708 1.26-.708.175 0 .309.023.4.068v.84zm2.31 2.027l-.567.59v1.856h-.903v-7.5h.903v4.536l.484-.581 1.645-1.738h1.099l-2.056 2.207 2.295 3.076h-1.06l-1.84-2.446zm5.688 2.543c-.716 0-1.299-.234-1.748-.703-.449-.472-.674-1.102-.674-1.89v-.165c0-.524.1-.992.298-1.402.202-.413.482-.735.84-.966a2.112 2.112 0 011.172-.352c.687 0 1.22.226 1.601.679.381.452.572 1.1.572 1.943v.376h-3.579c.013.52.164.942.454 1.265.293.319.664.478 1.113.478.319 0 .589-.065.81-.195a2.03 2.03 0 00.582-.518l.551.43c-.442.68-1.106 1.02-1.992 1.02zm-.112-4.736a1.2 1.2 0 00-.918.4c-.248.264-.401.635-.459 1.114h2.646v-.069c-.026-.459-.149-.813-.371-1.064-.221-.254-.521-.38-.898-.38zm4.448-1.924v1.28h.986v.698h-.986v3.276c0 .212.044.371.132.479.088.104.238.156.449.156.104 0 .247-.02.43-.059v.733a2.623 2.623 0 01-.694.097c-.403 0-.708-.122-.913-.366-.205-.244-.307-.59-.307-1.04v-3.276h-.962v-.698h.962v-1.28h.903zm6.509 3.98c0 .804-.184 1.452-.552 1.943-.368.492-.866.737-1.494.737-.641 0-1.146-.203-1.514-.61v2.544h-.903v-7.315h.825l.044.587c.368-.456.879-.684 1.533-.684.635 0 1.136.24 1.504.718.371.478.557 1.144.557 1.997v.083zm-.903-.103c0-.596-.127-1.066-.381-1.41-.254-.346-.603-.518-1.045-.518-.547 0-.957.242-1.231.727v2.524c.27.482.684.723 1.24.723.433 0 .777-.17 1.031-.513.257-.345.386-.856.386-1.533zm3.037 2.686h-.904v-7.5h.904v7.5zm4.712 0c-.053-.104-.095-.29-.127-.557-.42.436-.922.654-1.504.654-.521 0-.949-.146-1.285-.439a1.44 1.44 0 01-.498-1.123c0-.55.209-.977.625-1.28.42-.305 1.01-.458 1.768-.458h.879v-.415c0-.316-.094-.567-.283-.752-.189-.19-.467-.284-.835-.284-.323 0-.593.082-.811.245-.218.162-.327.36-.327.59h-.908c0-.263.093-.517.278-.761.189-.248.443-.443.762-.586a2.577 2.577 0 011.059-.215c.609 0 1.086.153 1.431.459.345.303.524.72.537 1.255v2.431c0 .485.062.871.186 1.158v.078h-.947zm-1.499-.689c.283 0 .551-.073.805-.22a1.33 1.33 0 00.552-.57v-1.085h-.708c-1.107 0-1.66.324-1.66.972 0 .283.094.505.283.664.189.16.431.24.728.24zm5.795.05a1.3 1.3 0 00.845-.294c.241-.195.374-.44.401-.732h.854c-.016.302-.12.59-.312.864a2.07 2.07 0 01-.772.654 2.207 2.207 0 01-1.016.244c-.719 0-1.292-.239-1.718-.717-.424-.482-.635-1.14-.635-1.973v-.151c0-.515.094-.972.283-1.373.189-.4.459-.71.811-.932.354-.221.773-.332 1.255-.332.592 0 1.084.177 1.474.532.394.355.604.816.63 1.382h-.854a1.237 1.237 0 00-.391-.84 1.195 1.195 0 00-.859-.332c-.459 0-.816.166-1.07.498-.25.329-.376.806-.376 1.43v.172c0 .608.126 1.077.376 1.406.251.329.609.493 1.074.493zm5.308.736c-.716 0-1.299-.234-1.748-.703-.449-.472-.674-1.102-.674-1.89v-.165c0-.524.099-.992.298-1.402.202-.413.482-.735.84-.966a2.112 2.112 0 011.172-.352c.687 0 1.22.226 1.601.679.381.452.572 1.1.572 1.943v.376h-3.58c.013.52.165.942.455 1.265.293.319.664.478 1.113.478.319 0 .589-.065.81-.195.222-.13.415-.303.581-.518l.552.43c-.442.68-1.107 1.02-1.992 1.02zm-.112-4.736a1.2 1.2 0 00-.918.4c-.248.264-.401.635-.459 1.114h2.646v-.069c-.026-.459-.149-.813-.371-1.064-.221-.254-.521-.38-.898-.38z" fill="#242424"/><path d="M12.916 33.01a30.38 30.38 0 01-6.8-.76c-2.186-.534-3.986-1.24-5.4-2.12l3.04-6.88c1.334.773 2.827 1.4 4.48 1.88 1.654.453 3.24.68 4.76.68 1.307 0 2.24-.12 2.8-.36.56-.267.84-.654.84-1.16 0-.587-.373-1.027-1.12-1.32-.72-.294-1.92-.614-3.6-.96-2.16-.454-3.96-.934-5.4-1.44a9.482 9.482 0 01-3.76-2.56c-1.066-1.2-1.6-2.814-1.6-4.84 0-1.76.494-3.36 1.48-4.8.987-1.44 2.454-2.574 4.4-3.4 1.974-.827 4.36-1.24 7.16-1.24 1.92 0 3.8.213 5.64.64 1.867.4 3.507 1 4.92 1.8l-2.84 6.84c-2.746-1.387-5.346-2.08-7.8-2.08-2.426 0-3.64.586-3.64 1.76 0 .56.36.986 1.08 1.28.72.266 1.907.56 3.56.88 2.134.4 3.934.866 5.4 1.4a9.068 9.068 0 013.8 2.52c1.094 1.173 1.64 2.773 1.64 4.8a8.3 8.3 0 01-1.48 4.8c-.986 1.413-2.466 2.546-4.44 3.4-1.946.826-4.32 1.24-7.12 1.24z" fill="#E3390E"/><path d="M42.325 33.01c-2.853 0-5.36-.52-7.52-1.56-2.133-1.067-3.786-2.547-4.96-4.44-1.146-1.894-1.72-4.067-1.72-6.52 0-3.254.747-6.147 2.24-8.68 1.52-2.56 3.614-4.547 6.28-5.96 2.694-1.414 5.734-2.12 9.12-2.12 2.854 0 5.347.533 7.48 1.6 2.16 1.04 3.814 2.506 4.96 4.4 1.174 1.893 1.76 4.066 1.76 6.52 0 3.253-.76 6.16-2.28 8.72-1.493 2.533-3.586 4.506-6.28 5.92-2.666 1.413-5.693 2.12-9.08 2.12zm.8-7.64c1.494 0 2.787-.387 3.88-1.16 1.12-.774 1.974-1.814 2.56-3.12.587-1.307.88-2.734.88-4.28 0-1.654-.493-2.974-1.48-3.96-.96-.987-2.293-1.48-4-1.48-1.493 0-2.8.386-3.92 1.16-1.093.773-1.933 1.813-2.52 3.12-.586 1.306-.88 2.733-.88 4.28 0 1.653.48 2.973 1.44 3.96.987.986 2.334 1.48 4.04 1.48z" fill="#42B1BA"/><path d="M87.672 32.37l-.08-12.76-6.08 10.24h-4.16l-6.08-9.8v12.32h-8.6v-28h7.76l9.12 14.92 8.88-14.92h7.76l.08 28h-8.6z" fill="#3E4B66"/></svg>