<svg width="247" height="60" xmlns="http://www.w3.org/2000/svg" xmlns:xlink="http://www.w3.org/1999/xlink"><use xlink:href="#path0_fill" transform="translate(59 38)"/><use xlink:href="#path1_fill" transform="translate(.127 .553)" fill="#F51C0D"/><use xlink:href="#path2_fill" transform="translate(2.526 1.252)" fill="#F67E1F"/><use xlink:href="#path3_fill" transform="translate(1.969 2.37)" fill="#FEE300"/><use xlink:href="#path4_fill" transform="translate(3.246)" fill="#AECC38"/><use xlink:href="#path5_fill" transform="translate(0 1.882)" fill="#82328B"/><use xlink:href="#path6_fill" transform="translate(5.456 4.293)" fill="#000C15"/><use xlink:href="#path7_fill" transform="translate(9.793 11.706)" fill="#F51C0D"/><use xlink:href="#path8_fill" transform="translate(9.469 11.469)" fill="#F67E1F"/><use xlink:href="#path9_fill" transform="translate(10.42 11.517)" fill="#AECC38"/><use xlink:href="#path10_fill" transform="translate(11.597 11.588)" fill="#29C1F0"/><use xlink:href="#path11_fill" transform="translate(12.523 11.707)" fill="#82328B"/><use xlink:href="#path12_fill" transform="translate(11.597 11.598)" fill="#FFF"/><g transform="translate(59 15)"><use xlink:href="#path13_fill" fill="#82328B"/><use xlink:href="#path14_fill"/></g><defs><path id="path0_fill" d="M1.188 9h.948V6.036h2.04c1.788 0 3.3-.936 3.3-2.748C7.476 1.608 6.228.6 4.332.6H1.188V9zm.948-3.828V1.476H4.26c1.356 0 2.256.624 2.256 1.824 0 1.128-.912 1.872-2.304 1.872H2.136zm8.76 3.96c1.092 0 1.8-.504 2.232-1.056V9h.912V5.208c0-.792-.216-1.392-.648-1.824-.444-.444-1.128-.684-2.004-.684-.912 0-1.572.216-2.256.528l.276.756c.576-.264 1.152-.444 1.884-.444 1.164 0 1.836.576 1.836 1.68v.192a6.5 6.5 0 00-1.896-.264c-1.572 0-2.652.696-2.652 2.028 0 1.296 1.152 1.956 2.316 1.956zm.18-.744c-.84 0-1.56-.456-1.56-1.236 0-.768.66-1.272 1.812-1.272.756 0 1.356.132 1.812.264v.576c0 .984-.924 1.668-2.064 1.668zm6.889.756c1.536 0 2.46-.876 2.46-1.872 0-.816-.468-1.284-1.152-1.524.528-.216.996-.66.996-1.428 0-.96-.852-1.656-2.244-1.656-.912 0-1.752.276-2.4.78l.456.648c.54-.432 1.272-.624 1.884-.624.768 0 1.344.348 1.344.924 0 .648-.564 1.068-1.38 1.068h-.84v.756h.828c1.008 0 1.56.396 1.56 1.02 0 .72-.732 1.104-1.536 1.104-.744 0-1.452-.276-2.076-.804l-.468.684c.756.612 1.584.924 2.568.924zm4.172 1.776h.924V7.812c.48.696 1.224 1.32 2.377 1.32 1.5 0 2.963-1.2 2.963-3.228 0-2.064-1.476-3.24-2.963-3.24-1.14 0-1.872.636-2.377 1.38V2.796h-.924v8.124zm3.133-2.616c-1.152 0-2.244-.96-2.244-2.4s1.091-2.412 2.244-2.412c1.175 0 2.183.936 2.183 2.4 0 1.524-.983 2.412-2.183 2.412zm6.684.828c1.092 0 1.8-.504 2.232-1.056V9h.912V5.208c0-.792-.216-1.392-.648-1.824-.444-.444-1.128-.684-2.004-.684-.912 0-1.572.216-2.256.528l.276.756c.576-.264 1.152-.444 1.884-.444 1.164 0 1.836.576 1.836 1.68v.192a6.5 6.5 0 00-1.896-.264c-1.572 0-2.652.696-2.652 2.028 0 1.296 1.152 1.956 2.316 1.956zm.18-.744c-.84 0-1.56-.456-1.56-1.236 0-.768.66-1.272 1.812-1.272.756 0 1.356.132 1.812.264v.576c0 .984-.924 1.668-2.064 1.668zm7.837.756c1.836 0 3.18-1.464 3.18-3.192 0-1.704-1.356-3.084-2.976-3.084-1.32 0-2.136.612-2.568 1.344.096-1.188.528-1.884 1.812-2.208l3.36-.828-.18-.78-3.456.816c-2.16.516-2.316 2.436-2.316 4.44 0 2.16 1.26 3.492 3.144 3.492zm.024-.828c-1.248 0-2.22-1.044-2.22-2.34 0-1.296.912-2.34 2.196-2.34 1.248 0 2.22 1.044 2.22 2.34 0 1.296-.912 2.34-2.196 2.34zm7.662.828a3.221 3.221 0 003.252-3.24c0-1.776-1.368-3.24-3.228-3.24-1.872 0-3.24 1.488-3.24 3.24 0 1.776 1.356 3.24 3.216 3.24zm.024-.828c-1.308 0-2.292-1.08-2.292-2.412 0-1.332.924-2.424 2.268-2.424 1.308 0 2.304 1.092 2.304 2.424 0 1.332-.936 2.412-2.28 2.412zM54.083 9h.936V3.612h2.22v-.816h-5.376v.816h2.22V9zm4.5 0h.924V7.5l1.308-1.344L63.023 9h1.092L61.45 5.484l2.592-2.688h-1.14l-3.396 3.576V2.796h-.924V9zm8.656.132c1.092 0 1.8-.504 2.232-1.056V9h.912V5.208c0-.792-.216-1.392-.648-1.824-.444-.444-1.128-.684-2.004-.684-.912 0-1.572.216-2.256.528l.276.756c.576-.264 1.152-.444 1.884-.444 1.164 0 1.836.576 1.836 1.68v.192a6.5 6.5 0 00-1.896-.264c-1.572 0-2.652.696-2.652 2.028 0 1.296 1.152 1.956 2.316 1.956zm.18-.744c-.84 0-1.56-.456-1.56-1.236 0-.768.66-1.272 1.812-1.272.756 0 1.356.132 1.812.264v.576c0 .984-.924 1.668-2.064 1.668zM75.94 9h.887l3.696-4.908V9h.924V2.796h-.9l-3.684 4.908V2.796h-.924V9zm12.667 0h.936V3.612h2.22v-.816h-5.376v.816h2.22V9zm7.212.144c1.176 0 1.932-.468 2.556-1.164l-.576-.516c-.504.528-1.104.876-1.956.876-1.092 0-2.052-.756-2.184-2.064h4.92c.012-.144.012-.24.012-.324 0-1.824-1.056-3.288-2.892-3.288-1.716 0-2.976 1.44-2.976 3.24 0 1.932 1.392 3.24 3.096 3.24zm-2.16-3.612c.132-1.2.948-2.088 2.016-2.088 1.224 0 1.872.96 1.98 2.088h-3.996zm9.346 3.612c1.164 0 1.908-.504 2.532-1.2l-.612-.564c-.492.528-1.08.936-1.872.936-1.296 0-2.28-1.068-2.28-2.412 0-1.356.96-2.424 2.22-2.424.84 0 1.416.396 1.908.912l.588-.624c-.576-.612-1.308-1.104-2.484-1.104-1.812 0-3.18 1.488-3.18 3.24 0 1.764 1.368 3.24 3.18 3.24zM108.563 9h.936V3.612h2.22v-.816h-5.376v.816h2.22V9zm4.5 0h.888l3.696-4.908V9h.924V2.796h-.9l-3.684 4.908V2.796h-.924V9zm7.571 1.92h.924V7.812c.48.696 1.224 1.32 2.376 1.32 1.5 0 2.964-1.2 2.964-3.228 0-2.064-1.476-3.24-2.964-3.24-1.14 0-1.872.636-2.376 1.38V2.796h-.924v8.124zm3.132-2.616c-1.152 0-2.244-.96-2.244-2.4s1.092-2.412 2.244-2.412c1.176 0 2.184.936 2.184 2.4 0 1.524-.984 2.412-2.184 2.412zm7.668.84a3.221 3.221 0 003.252-3.24c0-1.776-1.368-3.24-3.228-3.24-1.872 0-3.24 1.488-3.24 3.24 0 1.776 1.356 3.24 3.216 3.24zm.024-.828c-1.308 0-2.292-1.08-2.292-2.412 0-1.332.924-2.424 2.268-2.424 1.308 0 2.304 1.092 2.304 2.424 0 1.332-.936 2.412-2.28 2.412zM136.36 9h3.108c1.368 0 2.256-.648 2.256-1.692 0-.876-.624-1.332-1.368-1.536.516-.216 1.032-.612 1.032-1.428 0-.936-.792-1.548-2.028-1.548h-3V9zm.924-.792V6.204h1.944c1.008 0 1.548.36 1.548.96 0 .648-.54 1.044-1.428 1.044h-2.064zm0-2.748V3.588h1.932c.804 0 1.236.36 1.236.876 0 .648-.516.996-1.26.996h-1.908zm7.955 3.672c1.092 0 1.8-.504 2.232-1.056V9h.912V5.208c0-.792-.216-1.392-.648-1.824-.444-.444-1.128-.684-2.004-.684-.912 0-1.572.216-2.256.528l.276.756c.576-.264 1.152-.444 1.884-.444 1.164 0 1.836.576 1.836 1.68v.192a6.5 6.5 0 00-1.896-.264c-1.572 0-2.652.696-2.652 2.028 0 1.296 1.152 1.956 2.316 1.956zm.18-.744c-.84 0-1.56-.456-1.56-1.236 0-.768.66-1.272 1.812-1.272.756 0 1.356.132 1.812.264v.576c0 .984-.924 1.668-2.064 1.668zm4.922.612h.924V6.288h3.576V9h.924V2.796h-.924v2.676h-3.576V2.796h-.924V9zm7.488 0h.888l3.696-4.908V9h.924V2.796h-.9l-3.684 4.908V2.796h-.924V9zm10.282.144c1.176 0 1.932-.468 2.556-1.164l-.576-.516c-.504.528-1.104.876-1.956.876-1.092 0-2.052-.756-2.184-2.064h4.92c.012-.144.012-.24.012-.324 0-1.824-1.056-3.288-2.892-3.288-1.716 0-2.976 1.44-2.976 3.24 0 1.932 1.392 3.24 3.096 3.24zm-2.16-3.612c.132-1.2.948-2.088 2.016-2.088 1.224 0 1.872.96 1.98 2.088h-3.996z"/><path id="path1_fill" fill-rule="evenodd" d="M0 56.772L2.39 0l19.2.335C36.827.6 44.148 6.662 43.532 18.52l-.892 21.194c-.383 11.862-8.203 17.659-23.44 17.393L0 56.772z"/><path id="path2_fill" fill-rule="evenodd" d="M4.584 57.63L0 .96l19.176-.9c15.218-.713 23.258 4.851 24.1 16.695l1.71 21.156c1.075 11.833-6.008 18.106-21.226 18.82l-19.176.899z"/><path id="path3_fill" fill-rule="evenodd" d="M4.584 57.63L0 .96l19.176-.9c15.218-.713 23.258 4.851 24.1 16.695l1.71 21.156c1.075 11.833-6.008 18.106-21.226 18.82l-19.176.899z"/><path id="path4_fill" fill-rule="evenodd" d="M0 56.78L1.815 0l19.203.233C36.258.418 43.641 6.439 43.145 18.3l-.677 21.197c-.262 11.863-8.024 17.701-23.265 17.517L0 56.78z"/><path id="path5_fill" fill-rule="evenodd" d="M4.584 57.63L0 .96l19.176-.9c15.218-.713 23.258 4.851 24.1 16.695l1.71 21.156c1.075 11.833-6.008 18.106-21.226 18.82l-19.176.899z"/><path id="path6_fill" fill-rule="evenodd" d="M.566 51.316L0 .182l17.296-.18c13.728-.142 20.608 5.128 20.62 15.81l.212 19.09c.223 10.681-6.538 16.092-20.265 16.234l-17.297.18z"/><path id="path7_fill" fill-rule="evenodd" d="M26.571 6.387l-6.843 3.011c-1.95-3.206-4.52-4.48-7.685-3.835-1.363.279-2.434.838-3.224 1.678-.818.882-1.107 1.85-.87 2.893.29 1.28 1.239 2.315 2.83 3.1 1.033.507 3.48 1.355 7.338 2.53 3.938 1.243 6.728 2.306 8.347 3.215 2.51 1.405 4.045 3.339 4.605 5.803.588 2.587-.135 4.955-2.157 7.102-2.061 2.192-5.105 3.703-9.147 4.528C11.452 38.11 5.773 35.82 2.73 29.55l6.862-2.988c1.951 3.997 4.961 5.575 9.038 4.742 1.705-.348 2.982-1.004 3.809-1.96.83-.942 1.112-1.999.843-3.183-.279-1.227-1.17-2.23-2.656-3-1.245-.663-3.296-1.445-6.138-2.352-4.13-1.304-6.624-2.133-7.484-2.5C3.1 16.657.827 14.443.197 11.672-.43 8.908.44 6.456 2.81 4.283 4.796 2.428 7.512 1.15 10.932.45 17.943-.98 23.157 1 26.57 6.387z"/><path id="path8_fill" fill-rule="evenodd" d="M30.37 8.867l-7.46 1.71c-.724-3.563-2.694-5.318-5.887-5.27-1.375.02-2.572.375-3.604 1.063-1.072.725-1.678 1.634-1.816 2.718-.17 1.33.363 2.54 1.585 3.623.794.7 2.797 2.006 6.011 3.905 3.266 1.98 5.516 3.566 6.722 4.776 1.87 1.874 2.642 4.09 2.316 6.652-.342 2.687-1.838 4.91-4.476 6.669-2.692 1.795-6.07 2.726-10.147 2.786C5.227 37.622.69 34.269 0 27.449l7.47-1.683c.451 4.35 2.73 6.49 6.843 6.43 1.72-.026 3.145-.438 4.25-1.236 1.104-.78 1.735-1.781 1.891-3.012.162-1.275-.327-2.441-1.456-3.49-.939-.894-2.593-2.061-4.946-3.5-3.426-2.079-5.479-3.375-6.16-3.902-3.09-2.384-4.46-5.019-4.093-7.898.365-2.871 2.028-5.151 5.003-6.869C11.307.816 14.297.053 17.747.003c7.073-.104 11.28 2.854 12.623 8.864z"/><path id="path9_fill" fill-rule="evenodd" d="M28.334 7.976l-5.579 1.661c-.553-2.724-2.194-4.165-4.906-4.326a7.205 7.205 0 00-1.643.085 7.224 7.224 0 00-1.728-.058c-1.381.11-2.543.538-3.5 1.284-.992.785-1.492 1.721-1.501 2.798-.011 1.323.67 2.482 2.028 3.47.827.598 2.79 1.652 5.883 3.151l1.092.811c2.95 2.232 4.952 3.992 5.976 5.297 1.59 2.022 2.053 4.31 1.39 6.863-.693 2.68-2.464 4.808-5.294 6.385-1.797 1.003-3.811 1.648-6.046 1.936C6.322 37.88 1.487 34.86 0 28.284l5.75-1.688c.29 3.508 2.237 5.367 5.84 5.579.771.046 1.49.009 2.16-.116.39.014.796.004 1.22-.03 1.727-.137 3.112-.637 4.13-1.496 1.016-.842 1.53-1.87 1.54-3.093.011-1.268-.62-2.387-1.882-3.346-1.052-.821-2.856-1.863-5.396-3.129l-1.068-.528c-2.768-2.103-4.434-3.421-4.998-3.966-2.724-2.625-3.72-5.375-2.974-8.246.743-2.863 2.683-5.037 5.84-6.548C12.258.652 14.593.093 17.154 0c5.646.217 9.372 2.878 11.18 7.976z"/><path id="path10_fill" fill-rule="evenodd" d="M25.804 7.045l-5.393 2.041c-.92-2.64-2.764-3.939-5.515-3.899a7.3 7.3 0 00-1.64.204h-.002l-.025-.002-.008-.002h-.02l-.024-.002-.027-.002-.027-.002-.104-.006-.027-.001-.052-.002-.027-.002h-.026l-.135-.003h-.08l-.004-.001-.05.002h-.053l-.026.001-.012-.001-.017.001-.027.001h-.026l-.029.002-.026.001h-.017l-.01.001h-.028l-.027.002-.029.001-.026.002-.023.002h-.005l-.027.002-.028.001-.027.003-.028.001-.029.002h-.002l-.024.003-.028.003-.029.001-.026.003-.029.003h-.01l-.018.002-.028.004-.028.002-.029.003-.028.003-.015.002-.013.002-.028.003-.029.003-.028.004-.028.003-.023.004h-.005l-.028.005-.029.003-.028.004-.03.005-.028.004c-1.375.209-2.488.715-3.35 1.519-.894.844-1.273 1.802-1.138 2.863.166 1.303 1.005 2.393 2.505 3.266l.043.025.004.001.041.025.007.003.04.023.01.005.04.022.014.006.037.02.016.01.035.018.023.011.033.018.026.012.029.017.03.015.027.014.037.018.024.011.04.02.021.011.045.022.018.009.051.024.013.006.059.029.008.004.065.03.004.003.069.032.073.034.004.002.07.032.01.004.064.03.016.008.061.028.02.01.06.025.026.013.054.024.033.014.049.023.04.016.044.021.045.02.042.017.146.065.03.012.067.03.024.01.075.032.018.009.083.034.012.005.194.083h.002l.099.042.006.003.097.04.012.006.09.036.02.01.085.034.029.012.078.033.037.015.072.03.044.018.067.027.05.022.063.023.058.025.055.022.068.029.125.05.04.015.087.035.034.013.094.038.027.01.104.043.018.005.115.048.01.003.253.1.009.004.122.047.016.007.115.044.026.011.243.094.044.018.092.034.055.023.084.031.065.027.076.028.074.03.357.135.107.042.04.015.119.046.032.01.128.05.022.008.14.053.013.004.154.059 1.207.718c3.266 1.981 5.517 3.567 6.722 4.776 1.869 1.874 2.642 4.092 2.315 6.651-.34 2.689-1.838 4.911-4.476 6.67-1.675 1.117-3.616 1.899-5.824 2.345h-.002l-.382.051h-.001l-.375.045-.007.001-.364.039h-.015l-.353.033-.021.002-.342.026-.027.002-.333.022-.03.002-.326.014-.036.003-.313.01h-.042l-.305.006-.27.002h-.072l-.052-.001-.287-.005h-.057l-.277-.01-.06-.002-.27-.014-.065-.003-.26-.018-.07-.005-.25-.021-.074-.007-.244-.025-.241-.029-.072-.009-.081-.01-.228-.033-.226-.036-.078-.012-.088-.016-.211-.038-.094-.018-.202-.042-.014-.002a13.091 13.091 0 01-.818-.202l-.03-.008-.105-.03-.175-.05-.107-.034-.247-.08-.03-.01-.16-.056-.21-.077-.056-.02-.115-.045-.014-.005-.25-.104-.139-.059-.122-.054-.131-.06-.02-.01-.445-.22-.03-.015-.126-.068-.115-.064-.127-.072-.11-.064-.128-.078-.104-.064-.129-.082-.098-.066-.131-.088-.093-.064-.132-.095-.16-.117-.061-.046-.081-.064-.134-.106-.077-.064-.134-.112-.073-.063-.136-.118-.067-.062a10.889 10.889 0 01-.767-.776l-.136-.152-.045-.055-.135-.161-.043-.052-.134-.17-.039-.049-.133-.177-.035-.047-.132-.186-.033-.043-.131-.194-.028-.041-.131-.203-.024-.039-.152-.246-.129-.218-.02-.033-.126-.228-.017-.03-.125-.237-.013-.024-.123-.247-.012-.021-.12-.257-.01-.018-.12-.265-.006-.014-.119-.275-.003-.009-.116-.285-.001-.005L0 29.093l5.562-2.08c.76 3.43 2.967 5.117 6.622 5.063.782-.01 1.5-.1 2.159-.272h.019l.017-.001h.019l.019-.002.019-.001h.017l.019-.001h.019l.019-.002.019-.002h.036l.019-.002.019-.002.019-.001h.003l.035-.002.018-.001.02-.002.018-.001.02-.002.018-.001.019-.002.019-.001.017-.002h.002l.019-.001.019-.002.019-.001.018-.003.02-.002.018-.001.02-.001.018-.002.02-.003h.014l.006-.002.018-.001.02-.003.018-.002h.02l.02-.004.018-.002.02-.002.018-.002.02-.003.01-.002h.01l.018-.002.021-.002.019-.003.019-.003.02-.002.02-.002.018-.003.02-.002.02-.003h.005l.015-.003.019-.003.019-.003.02-.001.02-.003.02-.003.018-.003.021-.003.019-.003.02-.003c1.721-.261 3.048-.854 3.957-1.773.91-.903 1.291-1.952 1.138-3.157-.158-1.248-.944-2.303-2.341-3.155-1.169-.731-3.124-1.625-5.849-2.685l-.184-.07-.183-.07-.179-.071-.179-.069-.175-.067-.172-.067-.073-.028-.002-.001c-3.064-1.868-4.917-3.042-5.557-3.537-3.092-2.384-4.462-5.018-4.094-7.897.365-2.87 2.027-5.152 5.003-6.869 1.973-1.16 4.246-1.88 6.809-2.159h.004l.266-.007h.002L14.019 0h.041l.222.001.076.001.182.003.115.002.142.005.152.006.104.005.184.01.068.006.22.016.278.025h.006l.24.025.04.005.202.025.076.01.165.024.11.016.128.021.143.024.013.002.255.05.058.01.209.043.023.005.228.053.01.002.217.053.042.012.183.049.074.02.252.074.115.036.135.043.082.028.164.057.05.017.195.072.018.007.21.082.013.005.195.08.043.018.161.071.071.033.232.109.102.048.126.064.072.037.154.082.042.022.181.1.013.008.192.111.014.01.174.106.042.027.145.093.067.046.117.076.094.065.088.063.118.085.061.044.142.108.036.026.165.132.009.007.172.142.017.013.155.131.039.036.127.114.064.058.102.095.087.082.076.073.108.109.052.051.13.135.028.03.151.162.007.006.153.17.016.02.134.156.039.046.11.133.06.073.087.109.08.101.064.085.1.132.043.058.116.162.023.032.136.194.002.003.134.2.017.027.116.18.036.055.094.152.053.09.075.123.071.12.054.095.087.156.037.064.102.191.018.032.118.228z"/><path id="path11_fill" fill-rule="evenodd" d="M23.84 6.387L19.263 8.4c-.978-2.26-2.747-3.369-5.294-3.332a7.3 7.3 0 00-1.64.203h-.002l-.025-.001-.008-.002-.02-.001-.024-.002-.027-.001-.027-.002-.104-.006-.027-.002-.052-.001-.027-.002h-.026l-.134-.003h-.081l-.004-.001-.05.002h-.108l-.027.002h-.026l-.029.002h-.043l-.01.002h-.029l-.026.001-.028.002-.027.001-.023.002-.005.001-.027.001-.028.002-.027.003-.028.001-.029.002h-.002l-.024.002-.028.003-.029.002-.026.002-.028.003h-.01l-.019.003-.028.003-.028.003-.029.003-.028.003-.015.002-.013.002-.028.003-.029.003-.028.004-.028.003-.023.004h-.005l-.028.005-.029.003-.028.004-.03.004-.028.005c-.208.031-.41.07-.604.115-.218.027-.44.061-.664.108-1.363.277-2.433.836-3.224 1.677-.818.883-1.107 1.851-.87 2.893.29 1.28 1.24 2.315 2.831 3.1.946.465 3.08 1.215 6.398 2.241l.002.002.032.01.128.05.022.008.14.053.013.004.154.058 1.207.72c3.266 1.98 5.517 3.566 6.722 4.775 1.869 1.874 2.642 4.092 2.316 6.651-.34 2.688-1.839 4.91-4.477 6.67-1.518 1.013-3.252 1.749-5.21 2.21C8.019 37.805 2.853 35.424 0 29.549l4.78-2.081c.874 3.043 3.032 4.54 6.477 4.49.782-.011 1.5-.1 2.159-.273h.019l.017-.001h.019l.019-.002.019-.002h.055l.019-.002.019-.002.036-.001.019-.002.019-.001.019-.002h.003l.035-.001.018-.002.02-.001.018-.002.02-.001.018-.002.019-.001.02-.002h.016l.002-.001.019-.001.019-.002.019-.002.018-.002.02-.002.018-.001.02-.002.018-.001.02-.003.014-.001h.006l.019-.002.018-.003.02-.002.018-.001.02-.003.02-.002.018-.003.02-.001.02-.003.01-.002h.009l.019-.003.02-.001.02-.003.018-.003.02-.002.02-.003.018-.003.02-.001.02-.003h.005l.015-.003.019-.003.019-.003.02-.002.02-.003.02-.003.018-.003.021-.003.019-.003.02-.003c.417-.063.811-.145 1.18-.247l.082-.016c1.704-.349 2.982-1.005 3.808-1.962.83-.94 1.112-1.997.843-3.182-.278-1.227-1.17-2.23-2.656-3-1.244-.662-3.295-1.445-6.136-2.352l-1.055-.335-.06-.023-.173-.066-.072-.028-.003-.001c-3.064-1.868-4.917-3.042-5.557-3.538C1.747 14.434.377 11.8.745 8.921 1.11 6.05 2.772 3.769 5.748 2.052 7.475 1.035 9.435.356 11.616.017c5.313-.228 9.39 1.896 12.224 6.37z"/><path id="path12_fill" fill-rule="evenodd" d="M21.36 8.717c-.702-2.181-2.267-3.345-4.689-3.487a7.614 7.614 0 00-.793-.006 7.732 7.732 0 00-1.793.007 8.087 8.087 0 00-1.579.129h-.049l-.029.002-.026.001h-.017l-.01.001h-.028l-.027.002-.029.002h-.026l-.023.003h-.005l-.027.002-.028.002-.027.002-.028.002-.029.001h-.002l-.024.003-.028.003-.029.001-.026.003-.029.003h-.01l-.018.003-.028.003-.028.003-.029.002-.028.003-.015.003-.013.002-.028.002-.029.003-.028.005-.028.003-.023.003h-.005l-.028.005-.029.003-.028.004-.03.005-.028.004c-1.375.209-2.488.715-3.35 1.519-.894.845-1.273 1.803-1.138 2.863.166 1.303 1.005 2.394 2.505 3.266l.043.026h.004l.041.025.007.003.04.023.01.005.04.022.014.006.037.021.016.009.035.018.023.012.033.017.026.013.029.016.03.015.027.014.037.018.024.011.04.02.021.011.045.023.018.008.051.024.013.007.059.028.008.004.065.03.004.003.069.033.073.033.004.002.07.033.01.004.064.03.016.007.061.028.02.01.06.026.026.012.054.024.033.014.049.024.04.016.044.02.045.02.042.017.146.066.03.012.067.028.024.012.075.032.018.008.083.035.012.005.194.083h.002l.099.041.006.003.097.04.012.006.09.037.02.009.085.034.029.013.078.032.037.015.072.03.044.018.067.027.05.022.063.024.058.024.055.022.068.029.125.05.04.015.087.035.034.013.094.039.027.01.104.042.018.006.115.047.01.003.253.1.009.004.122.047.016.007.115.044.026.011.243.094.044.018.092.035.055.022.084.031.065.027.076.029.074.028.357.136.107.042.04.015.119.046.032.01.128.05.022.008.11.043.41.2.238.14.987.735c2.95 2.232 4.952 3.991 5.976 5.296 1.59 2.023 2.055 4.311 1.391 6.864-.695 2.68-2.464 4.807-5.295 6.386-1.526.85-3.206 1.445-5.048 1.78l-.017.002-.021.001-.342.026-.027.002-.333.022-.03.002-.326.014-.036.003-.313.01-.042.001-.305.005-.27.002h-.124l-.287-.006h-.057l-.277-.01-.06-.002-.27-.013-.065-.004-.26-.018-.07-.004-.25-.022-.074-.007-.244-.025-.241-.029-.072-.008-.081-.011-.228-.033-.226-.036-.078-.012-.088-.016-.211-.038-.094-.018-.202-.041-.014-.003a13.162 13.162 0 01-.818-.202l-.03-.008-.105-.03-.175-.05-.107-.034-.247-.08-.03-.01-.16-.056-.21-.076-.056-.021-.115-.045-.014-.005-.25-.103-.139-.06-.122-.053-.131-.061-.02-.01-.445-.22-.03-.015-.126-.068-.115-.064-.127-.072-.11-.064-.128-.077-.104-.065-.129-.082-.098-.066-.131-.088-.093-.064-.132-.095-.16-.117-.061-.046-.081-.064-.134-.106-.077-.064-.134-.112-.073-.063-.136-.118-.067-.062a10.87 10.87 0 01-.767-.776l-.136-.152-.045-.055-.135-.16-.043-.053-.134-.17-.039-.049-.133-.177-.035-.047-.132-.186-.033-.043-.131-.194-.028-.041-.131-.202-.024-.04-.152-.246-.129-.218-.02-.033-.126-.228-.017-.029-.125-.238-.013-.024-.123-.246-.012-.022-.12-.257-.01-.017-.12-.265-.006-.015-.119-.275-.003-.009-.116-.285-.001-.005L0 29.083l4.677-1.75c.513 2.98 2.424 4.566 5.736 4.761a9.444 9.444 0 001.534-.028h.237a9.88 9.88 0 001.285-.096l.324-.021a9.907 9.907 0 001.534-.239h.002l.02-.002.02-.003h.005l.015-.003.019-.003.019-.002.02-.002.02-.003.02-.003.018-.003.021-.003.019-.003.02-.003c1.721-.261 3.048-.854 3.957-1.773.91-.903 1.291-1.951 1.138-3.156-.158-1.249-.944-2.303-2.341-3.155-1.169-.732-3.124-1.626-5.849-2.686l-.184-.07-.183-.07-.179-.07-.179-.07-.175-.067-.172-.067-.014-.005-.119-.058-.265-.163c-2.698-2.052-4.325-3.34-4.88-3.878-2.725-2.624-3.72-5.374-2.975-8.246.742-2.862 2.684-5.036 5.84-6.547C10.745.736 12.67.204 14.754 0l.042.002.152.006.104.005.184.01.068.006.22.016.278.025h.006l.24.025.04.005.202.025.076.01.165.024.11.017.128.02.143.024.013.003.255.048.058.01.209.044.023.005.228.053.01.003.217.053.042.011.183.049.074.02.252.075.115.035.135.043.082.028.164.057.05.017.195.072.018.007.21.082.013.005.195.08.043.019.161.07.071.033.232.109.102.048.126.064.072.037.154.082.042.023.181.1.013.007.192.111.014.01.174.106.042.027.145.093.067.046.117.076.094.065.088.063.118.085.061.045.142.107.036.027.165.131.009.007.172.142.017.013.155.132.039.035.127.114.064.059.102.094.087.082.076.073.108.109.052.052.13.134.028.03.151.162.007.006.153.17.016.02.134.156.039.046.11.133.06.073.087.109.08.101.064.085.1.132.043.059.116.161.023.033.136.193.002.003.134.2.017.027.116.18.036.055.094.153.053.089.075.123.071.12.054.096.087.156.037.063.102.192.018.032.118.227-4.443 1.682z"/><path id="path13_fill" d="M1.364 16h5.852c5.544 0 8.778-3.3 8.778-7.744 0-4.488-3.19-7.656-8.69-7.656h-5.94V16zm4.268-3.784V4.34H7.37c2.552 0 4.246 1.474 4.246 3.938 0 2.53-1.694 3.938-4.246 3.938H5.632zM18.274 16h4.29V.6h-4.29V16zm14.963.308c2.794 0 5.06-1.034 6.688-2.376v-6.93h-7.083v3.124h3.035v1.87c-.638.418-1.43.638-2.464.638-2.441 0-4.18-1.782-4.18-4.268 0-2.398 1.716-4.268 3.939-4.268 1.518 0 2.617.528 3.718 1.452l2.508-3.014C37.769 1.128 35.855.292 33.15.292c-4.774 0-8.294 3.52-8.294 8.008 0 4.708 3.585 8.008 8.381 8.008zM42.38 16h4.29V.6h-4.29V16zm10.871 0h4.268V4.34h4.62V.6H48.631v3.74h4.62V16zm7.553 0h4.488l1.1-2.75h5.94L73.454 16h4.576L71.474.49H67.36L60.804 16zm6.842-6.072l1.738-4.378L71.1 9.928h-3.454zM79.524 16H91.25v-3.74h-7.458V.6h-4.268V16z"/><path id="path14_fill" d="M105.232 16.264c3.74 0 6.226-1.87 6.226-5.016 0-2.926-2.2-4.07-5.742-4.84-2.134-.484-2.662-.792-2.662-1.496 0-.594.506-1.034 1.54-1.034 1.364 0 2.904.528 4.312 1.518l2.134-3.014c-1.672-1.342-3.718-2.046-6.336-2.046-3.696 0-5.962 2.068-5.962 4.928 0 3.212 2.53 4.136 5.808 4.884 2.09.484 2.596.836 2.596 1.474 0 .704-.616 1.1-1.76 1.1-1.782 0-3.476-.638-4.994-1.848l-2.376 2.838c1.892 1.694 4.488 2.552 7.216 2.552zm8.302-.264h4.268v-4.4h2.112c3.828 0 6.622-1.914 6.622-5.544 0-3.454-2.508-5.456-6.402-5.456h-6.6V16zm4.268-7.744v-4.07h2.002c1.54 0 2.464.704 2.464 2.024 0 1.254-.924 2.046-2.442 2.046h-2.024zM128.337 16h12.496v-3.63h-8.272V9.928h7.392V6.562h-7.392V4.23h8.162V.6h-12.386V16zm22.087.308c3.41 0 5.368-1.474 6.82-3.476l-3.212-2.288c-.924 1.122-1.87 1.87-3.476 1.87-2.156 0-3.674-1.804-3.674-4.114 0-2.288 1.518-4.114 3.674-4.114 1.474 0 2.508.682 3.388 1.782l3.124-2.42C155.704 1.656 153.746.292 150.6.292c-4.664 0-8.118 3.52-8.118 8.008 0 4.642 3.542 8.008 7.942 8.008zM162.843 16h4.268V4.34h4.62V.6h-13.508v3.74h4.62V16zm10.761 0h4.268v-4.664h1.87L182.844 16h4.928l-3.674-5.368c1.914-.814 3.168-2.376 3.168-4.73 0-1.562-.462-2.75-1.364-3.652C184.868 1.216 183.24.6 180.886.6h-7.282V16zm4.268-8.008V4.296h2.794c1.43 0 2.31.616 2.31 1.826 0 1.166-.836 1.87-2.288 1.87h-2.816z"/></defs></svg>