<svg width="73" height="23" viewBox="0 0 73 23" fill="none" xmlns="http://www.w3.org/2000/svg">
<path d="M9.59957 22.48C7.85957 22.48 6.15957 22.29 4.49957 21.91C2.85957 21.51 1.50957 20.98 0.44957 20.32L2.72957 15.16C3.72957 15.74 4.84957 16.21 6.08957 16.57C7.32957 16.91 8.51957 17.08 9.65957 17.08C10.6396 17.08 11.3396 16.99 11.7596 16.81C12.1796 16.61 12.3896 16.32 12.3896 15.94C12.3896 15.5 12.1096 15.17 11.5496 14.95C11.0096 14.73 10.1096 14.49 8.84957 14.23C7.22957 13.89 5.87957 13.53 4.79957 13.15C3.71957 12.75 2.77957 12.11 1.97957 11.23C1.17957 10.33 0.77957 9.12 0.77957 7.6C0.77957 6.28 1.14957 5.08 1.88957 4C2.62957 2.92 3.72957 2.07 5.18957 1.45C6.66957 0.829999 8.45957 0.519999 10.5596 0.519999C11.9996 0.519999 13.4096 0.679999 14.7896 0.999999C16.1896 1.3 17.4196 1.75 18.4796 2.35L16.3496 7.48C14.2896 6.44 12.3396 5.92 10.4996 5.92C8.67957 5.92 7.76957 6.36 7.76957 7.24C7.76957 7.66 8.03957 7.98 8.57957 8.2C9.11957 8.4 10.0096 8.62 11.2496 8.86C12.8496 9.16 14.1996 9.51 15.2996 9.91C16.3996 10.29 17.3496 10.92 18.1496 11.8C18.9696 12.68 19.3796 13.88 19.3796 15.4C19.3796 16.72 19.0096 17.92 18.2696 19C17.5296 20.06 16.4196 20.91 14.9396 21.55C13.4796 22.17 11.6996 22.48 9.59957 22.48Z" fill="#E3390E"/>
<path d="M31.6564 22.48C29.5164 22.48 27.6364 22.09 26.0164 21.31C24.4164 20.51 23.1764 19.4 22.2964 17.98C21.4364 16.56 21.0064 14.93 21.0064 13.09C21.0064 10.65 21.5664 8.48 22.6864 6.58C23.8264 4.66 25.3964 3.17 27.3964 2.11C29.4164 1.05 31.6964 0.519999 34.2364 0.519999C36.3764 0.519999 38.2464 0.919999 39.8464 1.72C41.4664 2.5 42.7064 3.6 43.5664 5.02C44.4464 6.44 44.8864 8.07 44.8864 9.91C44.8864 12.35 44.3164 14.53 43.1764 16.45C42.0564 18.35 40.4864 19.83 38.4664 20.89C36.4664 21.95 34.1964 22.48 31.6564 22.48ZM32.2564 16.75C33.3764 16.75 34.3464 16.46 35.1664 15.88C36.0064 15.3 36.6464 14.52 37.0864 13.54C37.5264 12.56 37.7464 11.49 37.7464 10.33C37.7464 9.09 37.3764 8.1 36.6364 7.36C35.9164 6.62 34.9164 6.25 33.6364 6.25C32.5164 6.25 31.5364 6.54 30.6964 7.12C29.8764 7.7 29.2464 8.48 28.8064 9.46C28.3664 10.44 28.1464 11.51 28.1464 12.67C28.1464 13.91 28.5064 14.9 29.2264 15.64C29.9664 16.38 30.9764 16.75 32.2564 16.75Z" fill="#42B1BA"/>
<path d="M65.6661 22L65.6061 12.43L61.0461 20.11H57.9261L53.3661 12.76V22H46.9161V0.999999H52.7361L59.5761 12.19L66.2361 0.999999H72.0561L72.1161 22H65.6661Z" fill="#3E4B66"/>
</svg>
