<svg width="20" height="20" viewBox="0 0 20 20" fill="none" xmlns="http://www.w3.org/2000/svg">
<path d="M17.8799 0.208252H3.10208C1.93041 0.208252 0.990967 1.1477 0.990967 2.31936V6.54159H3.10208V2.31936H17.8799V17.0971H3.10208V12.8749H0.990967V17.0971C0.990967 17.657 1.21339 18.194 1.6093 18.5899C2.00521 18.9858 2.54218 19.2083 3.10208 19.2083H17.8799C18.4398 19.2083 18.9767 18.9858 19.3726 18.5899C19.7685 18.194 19.991 17.657 19.991 17.0971V2.31936C19.991 1.1477 19.041 0.208252 17.8799 0.208252ZM8.4643 13.4871L9.96319 14.986L15.241 9.70825L9.96319 4.43047L8.4643 5.91881L11.1982 8.6527H0.990967V10.7638H11.1982L8.4643 13.4871Z" fill="#36425B"/>
</svg>
